<?xml version="1.0" encoding="UTF-8"?>
<svg width="400" height="200" viewBox="0 0 400 200" xmlns="http://www.w3.org/2000/svg">
  <!-- Fondo blanco -->
  <rect width="400" height="200" fill="#fff"/>

  <!-- Letra M: Representa un andamio, color azul -->
  <g id="letterM" transform="translate(30,0)">
    <polyline points="10,150 10,50 40,110 70,50 70,150" 
              fill="none" 
              stroke="#007ACC" 
              stroke-width="6" 
              stroke-linejoin="round"/>
    <line x1="10" y1="90" x2="70" y2="90" 
          stroke="#007ACC" 
          stroke-width="4" 
          stroke-dasharray="4,4"/>
    <line x1="10" y1="120" x2="70" y2="120" 
          stroke="#007ACC" 
          stroke-width="4" 
          stroke-dasharray="4,4"/>
    <line x1="40" y1="50" x2="40" y2="150" 
          stroke="#007ACC" 
          stroke-width="4" 
          stroke-dasharray="4,4"/>
  </g>

  <!-- Letra H: Representa una escalera, color naranja -->
  <g id="letterH" transform="translate(100,0)">
    <line x1="10" y1="50" x2="10" y2="150" 
          stroke="#E67E22" 
          stroke-width="6"/>
    <line x1="50" y1="50" x2="50" y2="150" 
          stroke="#E67E22" 
          stroke-width="6"/>
    <line x1="10" y1="80" x2="50" y2="80" 
          stroke="#E67E22" 
          stroke-width="4"/>
    <line x1="10" y1="110" x2="50" y2="110" 
          stroke="#E67E22" 
          stroke-width="4"/>
    <line x1="10" y1="140" x2="50" y2="140" 
          stroke="#E67E22" 
          stroke-width="4"/>
  </g>

  <!-- Letra S: Representa una línea de vida, color rojo, más cerca de la H -->
  <g id="letterS" transform="translate(145,0)">
    <path d="M50,50 C10,50 10,100 50,100 C90,100 90,150 50,150" 
          stroke="#C0392B" 
          stroke-width="6" 
          fill="none" 
          stroke-linecap="round" 
          stroke-dasharray="10,5"/>
  </g>
</svg>
